<?xml version="1.0" encoding="utf-8"?>
<!-- Generator: Adobe Illustrator 23.0.4, SVG Export Plug-In . SVG Version: 6.00 Build 0)  -->
<svg version="1.1" id="Camada_1" xmlns="http://www.w3.org/2000/svg" xmlns:xlink="http://www.w3.org/1999/xlink" x="0px" y="0px"
	 viewBox="0 0 500 500" style="enable-background:new 0 0 500 500;" xml:space="preserve">
<style type="text/css">
	.st0{fill:#FFFFFF;}
	.st1{fill:#1573B5;}
</style>
<path class="st0" d="M426.06,132.26l-0.82-0.47v0.17L270.07,42.37v-0.05l-19.5-11.26h-0.21v0.02l-0.75-0.42l-0.68,0.39h-0.21
	l-18.78,10.85l-0.79,0.46v0.05L74.35,131.78v0.24L53.26,144.2L33.6,155.55L33,155.2v0.45v0.06v0.14v0.06v11.89v27.41v0.2v8.03v0.5
	v0.07v0.13V205v38.99v51.69v10.88v31.65v5.69l41.35,23.87v-48.23l-0.4-0.23v-75.33v-14.14l1.09,0.66v-49.66l0.32,0.19l154.26,89.06
	l0.34,0.2V320v4.56v133.08l19.58,11.3h0.21l0.68,0.39l0.75-0.42v0.02h0.21l19.08-11.02v0.1l0.51-0.29l154.26-89.06l0.41-0.24V320.2
	l-0.41,0.24l-153.61,88.69l-0.26-84.68l-0.02-5.08l-0.16-49.75l0-0.98l-0.55-177.71l111.1,64.14l43.5,25.11l0.42,0.24v-0.17
	l0.41,0.24v75.33v64.15v48.28L467,344.6v-12.59v-35.63v-40.57v-51.69v-10.88v-31.65v-5.69L426.06,132.26z M229.62,221.88
	L116.38,156.5l0.15-0.09l-0.65-0.38l114.06-65.85v-0.03l0.03-0.01v131.77l-0.34-0.2V221.88z"/>
<path class="st1" d="M425.24,131.78v0.17L270.98,42.9l-0.91-0.53v-0.05l-19.5-11.26h-0.21v0.02l-0.75-0.42l-0.68,0.39h-0.21
	l-18.76,10.83v48.24l0,0v178.69V320v137.64l19.58,11.3h0.21l0.68,0.39l0.75-0.42v0.02h0.21l19.08-11.02v0.1l0.51-0.29V270.1
	l154.26-89.06v0.17l0.82-0.47v-0.26v-47.97v-0.26L425.24,131.78z M270.64,90.92l0.34,0.2l113.24,65.38l-113.24,65.38v-20.57
	L270.64,90.92z"/>
</svg>
