<svg xmlns="http://www.w3.org/2000/svg"  viewBox="0 0 429.51 183.27"><defs><style>.cls-1{fill:#0d314a;}.cls-2{fill:#77bd78;}</style></defs><title>Ativo 4</title><g id="Camada_2" data-name="Camada 2"><g id="Camada_1-2" data-name="Camada 1"><g id="Grupo_1151" data-name="Grupo 1151"><path id="Caminho_2219" data-name="Caminho 2219" class="cls-1" d="M82.28,4.72l-65,37.53V62.4l65-37.53Z"/><path id="Caminho_2220" data-name="Caminho 2220" class="cls-2" d="M17.45,62.71l65,37.53v20.15l-65-37.53Z"/><path id="Caminho_2221" data-name="Caminho 2221" class="cls-2" d="M0,137H17.45V62.39L0,68.82Z"/><path id="Caminho_2222" data-name="Caminho 2222" class="cls-2" d="M181.33,125.9H163.88V62.45l17.45,5.47Z"/><path id="Caminho_2223" data-name="Caminho 2223" class="cls-1" d="M0,52.32V72.47L17.45,62.4V42.25Z"/><path id="Caminho_2224" data-name="Caminho 2224" class="cls-1" d="M181.33,52.32V72.47L163.88,62.4V42.25Z"/><path id="Caminho_2225" data-name="Caminho 2225" class="cls-2" d="M181.33,131.16V111l-17.45,10.07v20.15Z"/><path id="Caminho_2226" data-name="Caminho 2226" class="cls-2" d="M17.45,130.15v20.16L0,140.24V120.09Z"/><path id="Caminho_2227" data-name="Caminho 2227" class="cls-1" d="M99.05,4.89l65,37.53V62.57L99.05,25Z"/><path id="Caminho_2228" data-name="Caminho 2228" class="cls-2" d="M164.05,62.37l-65,37.52V120l65-37.53Z"/><path id="Caminho_2229" data-name="Caminho 2229" class="cls-1" d="M164.22,120.87l-65,37.53v20.15l65-37.53Z"/><path id="Caminho_2230" data-name="Caminho 2230" class="cls-1" d="M99.73,168.67l-.48-153.6-.2.11V4.87L90.9.17h-.09L90.5,0l-.29.16h-.08L82,4.89V25l.34-.19V178.39l8.18,4.72h.09l.28.16.32-.17h.08l8.15-4.71v-9.73Z"/></g><path id="Caminho_2231" data-name="Caminho 2231" class="cls-1" d="M238.74,58h-4.31V46.43c7-.11,7.63.27,7.63.27A5.14,5.14,0,0,1,247,52.06a1.09,1.09,0,0,1,0,.18c.14,6.33-8.24,5.8-8.24,5.8m32-11.09c-.25-1.7-1.36-10-9.06-14.49-1.44-.77-5.29-3.5-15.57-3.5-3.17-.07-36.49,0-36.49,0v71.78h24.77V75.45H245a40.14,40.14,0,0,0,11.91-1.9,20,20,0,0,0,12.65-12.29A29.59,29.59,0,0,0,270.76,47"/><path id="Caminho_2232" data-name="Caminho 2232" class="cls-1" d="M356.77,100.74V28.94H325.89l-9.23,36-9.28-36H276.47l0,71.8h20.88V61.4l10.07,39.34h18.38L335.9,61.37v39.37Z"/><path id="Caminho_2233" data-name="Caminho 2233" class="cls-1" d="M392.29,82.48l35.92-37.37V28.94H364.87V47.13h31.75l-35.42,37v16.63h68.31V82.48Z"/><path class="cls-1" d="M208.93,104.94H219.2a7,7,0,0,1,5,1.59,6,6,0,0,1,1.67,4.54,6.18,6.18,0,0,1-1.82,4.73q-1.81,1.7-5.56,1.7h-3.37v7.41h-6.21Zm6.21,8.51h1.51a3.87,3.87,0,0,0,2.5-.61,2,2,0,0,0,.73-1.59,2.23,2.23,0,0,0-.63-1.6,3.28,3.28,0,0,0-2.36-.65h-1.75Z"/><path class="cls-1" d="M244.09,119.06H233a3.55,3.55,0,0,0,.72,2,2.64,2.64,0,0,0,2.1.95,3.19,3.19,0,0,0,1.56-.41,3.84,3.84,0,0,0,1-.92l5.46.51a7.8,7.8,0,0,1-3,3.12,10.85,10.85,0,0,1-5.08.95,10.38,10.38,0,0,1-4.52-.81,6.73,6.73,0,0,1-2.74-2.57,7.8,7.8,0,0,1-1.08-4.15,7.25,7.25,0,0,1,2.17-5.49,8.29,8.29,0,0,1,6-2.1,10.62,10.62,0,0,1,4.9.94,6.32,6.32,0,0,1,2.74,2.72,9.93,9.93,0,0,1,.94,4.65Zm-5.64-2.66a3.75,3.75,0,0,0-.86-2.3,2.71,2.71,0,0,0-4,.35,3.83,3.83,0,0,0-.64,2Z"/><path class="cls-1" d="M257.43,119.25l5.28.6a7.51,7.51,0,0,1-1.43,2.85,6.61,6.61,0,0,1-2.55,1.87,9.88,9.88,0,0,1-3.93.67,14.29,14.29,0,0,1-3.83-.43,6.62,6.62,0,0,1-2.64-1.39,7,7,0,0,1-1.73-2.25,7.87,7.87,0,0,1-.63-3.43,8.07,8.07,0,0,1,.77-3.72,6.87,6.87,0,0,1,1.52-2,7,7,0,0,1,2-1.29,11.16,11.16,0,0,1,4.16-.66,9.62,9.62,0,0,1,5.4,1.26,6.7,6.7,0,0,1,2.61,3.71l-5.22.7a2.4,2.4,0,0,0-.89-1.4,3.19,3.19,0,0,0-4,.51,4.54,4.54,0,0,0-.85,3,3.86,3.86,0,0,0,.85,2.71,2.8,2.8,0,0,0,2.15.92,2.89,2.89,0,0,0,1.83-.56A3.24,3.24,0,0,0,257.43,119.25Zm-6.24,7.93.41-1.61a10,10,0,0,1,2.4-.31,4.88,4.88,0,0,1,3.21.79,2.42,2.42,0,0,1,.89,1.86,2.65,2.65,0,0,1-.4,1.35,2.78,2.78,0,0,1-1.44,1.12,7.46,7.46,0,0,1-2.75.42,22.82,22.82,0,0,1-3.65-.35v-1.68a16,16,0,0,0,3,.27,2.77,2.77,0,0,0,1.58-.31,1,1,0,0,0,.42-.82.86.86,0,0,0-.34-.68,1.64,1.64,0,0,0-1.06-.28A12.72,12.72,0,0,0,251.19,127.18Z"/><path class="cls-1" d="M270.31,115.13l-5.3-.56a6.08,6.08,0,0,1,.86-2.18A4.71,4.71,0,0,1,267.5,111a6.77,6.77,0,0,1,2.1-.65,16.36,16.36,0,0,1,2.89-.23,22.66,22.66,0,0,1,4,.28,5.16,5.16,0,0,1,2.52,1.16,4.09,4.09,0,0,1,1.11,1.74,6.08,6.08,0,0,1,.41,2.14v6.4a8.2,8.2,0,0,0,.13,1.6,7.39,7.39,0,0,0,.57,1.47H276a5.53,5.53,0,0,1-.41-.85,7.75,7.75,0,0,1-.19-.92,7.17,7.17,0,0,1-2.16,1.5,9,9,0,0,1-3.42.6,5.75,5.75,0,0,1-3.94-1.2,3.81,3.81,0,0,1-1.34-3,3.92,3.92,0,0,1,1-2.72,6.64,6.64,0,0,1,3.57-1.58c2.08-.41,3.43-.71,4.05-.88a16.15,16.15,0,0,0,2-.66,2,2,0,0,0-.42-1.43,2.14,2.14,0,0,0-1.49-.41,3.82,3.82,0,0,0-2,.44A2.37,2.37,0,0,0,270.31,115.13Zm4.81,2.92c-.76.27-1.56.51-2.39.72a5.41,5.41,0,0,0-2.14.89,1.4,1.4,0,0,0-.46,1,1.38,1.38,0,0,0,.46,1.07,2,2,0,0,0,1.34.41,3.42,3.42,0,0,0,1.72-.45,2.74,2.74,0,0,0,1.14-1.09,3.77,3.77,0,0,0,.33-1.69Z"/><path class="cls-1" d="M282.89,120.89l5.5-.51a2.73,2.73,0,0,0,1,1.4,3.4,3.4,0,0,0,3.36,0,1.07,1.07,0,0,0,.48-.89,1,1,0,0,0-.63-.92,10.59,10.59,0,0,0-2.38-.57,24.72,24.72,0,0,1-4-.94,4.17,4.17,0,0,1-1.89-1.45,3.76,3.76,0,0,1-.77-2.32,3.84,3.84,0,0,1,.83-2.47,4.93,4.93,0,0,1,2.29-1.54,12.18,12.18,0,0,1,3.91-.51,13.66,13.66,0,0,1,3.82.39,5,5,0,0,1,2.06,1.23,6.29,6.29,0,0,1,1.37,2.25l-5.26.51a1.82,1.82,0,0,0-.68-1,2.79,2.79,0,0,0-1.58-.43,2.24,2.24,0,0,0-1.37.33,1,1,0,0,0-.43.81.86.86,0,0,0,.54.8,8.79,8.79,0,0,0,2.38.49,16.4,16.4,0,0,1,4.11.87,4.63,4.63,0,0,1,2.07,1.6,3.94,3.94,0,0,1,.71,2.27,4.45,4.45,0,0,1-.76,2.44,5.07,5.07,0,0,1-2.38,1.88,11.42,11.42,0,0,1-4.44.7c-2.64,0-4.52-.37-5.64-1.13A5,5,0,0,1,282.89,120.89Z"/><path class="cls-1" d="M326.29,119.06H315.17a3.55,3.55,0,0,0,.72,2,2.63,2.63,0,0,0,2.1.95,3.18,3.18,0,0,0,1.55-.41,3.84,3.84,0,0,0,1-.92l5.46.51a7.78,7.78,0,0,1-3,3.12,10.88,10.88,0,0,1-5.08.95,10.43,10.43,0,0,1-4.53-.81,6.64,6.64,0,0,1-2.73-2.57,7.8,7.8,0,0,1-1.08-4.15,7.25,7.25,0,0,1,2.17-5.49,8.28,8.28,0,0,1,6-2.1,10.67,10.67,0,0,1,4.91.94,6.32,6.32,0,0,1,2.74,2.72,10.06,10.06,0,0,1,.94,4.65Zm-5.64-2.66a3.69,3.69,0,0,0-.87-2.3,2.71,2.71,0,0,0-4,.35,3.93,3.93,0,0,0-.64,2Z"/><path class="cls-1" d="M338.48,104.94h10.26a7.06,7.06,0,0,1,5,1.59,6,6,0,0,1,1.66,4.54,6.17,6.17,0,0,1-1.81,4.73q-1.83,1.7-5.56,1.7h-3.38v7.41h-6.2Zm6.2,8.51h1.52a3.89,3.89,0,0,0,2.5-.61,2,2,0,0,0,.73-1.59,2.23,2.23,0,0,0-.63-1.6,3.28,3.28,0,0,0-2.36-.65h-1.76Z"/><path class="cls-1" d="M358.3,110.44h5.16v2.36a7.63,7.63,0,0,1,2.34-2.06,6.11,6.11,0,0,1,2.89-.62,4.72,4.72,0,0,1,3.61,1.37,6,6,0,0,1,1.3,4.23v9.19H368v-8a2.88,2.88,0,0,0-.51-1.93,1.79,1.79,0,0,0-1.42-.57,2,2,0,0,0-1.63.77,4.4,4.4,0,0,0-.63,2.74v6.94H358.3Z"/><path class="cls-1" d="M393,119.06H381.86a3.55,3.55,0,0,0,.72,2,2.61,2.61,0,0,0,2.1.95,3.18,3.18,0,0,0,1.55-.41,3.84,3.84,0,0,0,1-.92l5.46.51a7.78,7.78,0,0,1-3,3.12,10.88,10.88,0,0,1-5.08.95,10.43,10.43,0,0,1-4.53-.81,6.64,6.64,0,0,1-2.73-2.57,7.8,7.8,0,0,1-1.08-4.15,7.25,7.25,0,0,1,2.17-5.49,8.28,8.28,0,0,1,6-2.1,10.67,10.67,0,0,1,4.91.94,6.32,6.32,0,0,1,2.74,2.72,10.06,10.06,0,0,1,.94,4.65Zm-5.65-2.66a3.63,3.63,0,0,0-.86-2.3,2.71,2.71,0,0,0-4,.35,3.83,3.83,0,0,0-.64,2Z"/><path class="cls-1" d="M410.77,124.91h-5.18v-2.34a7.72,7.72,0,0,1-2.33,2.06,6.22,6.22,0,0,1-2.9.61,4.69,4.69,0,0,1-3.59-1.37,5.91,5.91,0,0,1-1.3-4.21v-9.22H401v8a2.93,2.93,0,0,0,.51,1.94,1.78,1.78,0,0,0,1.41.57,2,2,0,0,0,1.63-.76,4.44,4.44,0,0,0,.64-2.74v-7h5.54Z"/><path class="cls-1" d="M413.16,120.89l5.5-.51a2.73,2.73,0,0,0,1,1.4,2.83,2.83,0,0,0,1.63.42,2.8,2.8,0,0,0,1.73-.47,1.07,1.07,0,0,0,.48-.89,1,1,0,0,0-.63-.92,10.59,10.59,0,0,0-2.38-.57,24.26,24.26,0,0,1-4-.94,4.25,4.25,0,0,1-1.9-1.45,3.76,3.76,0,0,1-.77-2.32,3.84,3.84,0,0,1,.83-2.47,5,5,0,0,1,2.29-1.54,12.18,12.18,0,0,1,3.91-.51,13.66,13.66,0,0,1,3.82.39,5,5,0,0,1,2.06,1.23,6.29,6.29,0,0,1,1.37,2.25l-5.26.51a1.77,1.77,0,0,0-.68-1,2.79,2.79,0,0,0-1.58-.43,2.26,2.26,0,0,0-1.37.33,1,1,0,0,0-.43.81.86.86,0,0,0,.55.8,8.59,8.59,0,0,0,2.37.49,16.4,16.4,0,0,1,4.11.87,4.63,4.63,0,0,1,2.07,1.6,3.94,3.94,0,0,1,.71,2.27,4.52,4.52,0,0,1-.75,2.44,5.15,5.15,0,0,1-2.39,1.88,11.37,11.37,0,0,1-4.43.7c-2.65,0-4.53-.37-5.65-1.13A5.07,5.07,0,0,1,413.16,120.89Z"/><path class="cls-2" d="M219.91,143.63h-6.15v4.6H221v2.08h-9.79v-15h9.71v2.1h-7.11v4.13h6.15Z"/><path class="cls-2" d="M226.44,135.34l4.31,11.48,4.31-11.48h3.36v15h-2.59v-4.93l.26-6.6-4.42,11.53h-1.86l-4.41-11.52.25,6.59v4.93h-2.59v-15Z"/><path class="cls-2" d="M244.1,144.76v5.55h-2.61v-15h5.73a5.79,5.79,0,0,1,4,1.31,4.39,4.39,0,0,1,1.48,3.46,4.24,4.24,0,0,1-1.45,3.43,6.09,6.09,0,0,1-4,1.22Zm0-2.1h3.12a3.06,3.06,0,0,0,2.12-.65,2.41,2.41,0,0,0,.73-1.89,2.59,2.59,0,0,0-.74-1.93,2.86,2.86,0,0,0-2-.75H244.1Z"/><path class="cls-2" d="M260.45,144.55h-2.9v5.76H255v-15h5.26a6.1,6.1,0,0,1,4,1.17,4.09,4.09,0,0,1,1.41,3.36,4.26,4.26,0,0,1-.72,2.52,4.67,4.67,0,0,1-2,1.55l3.36,6.24v.13h-2.79Zm-2.9-2.09h2.67a2.94,2.94,0,0,0,2.06-.67A2.31,2.31,0,0,0,263,140a2.49,2.49,0,0,0-.68-1.86,2.94,2.94,0,0,0-2-.68h-2.75Z"/><path class="cls-2" d="M276.83,143.63h-6.14v4.6h7.18v2.08h-9.78v-15h9.71v2.1h-7.11v4.13h6.14Z"/><path class="cls-2" d="M287.81,146.46a1.8,1.8,0,0,0-.69-1.52,8.19,8.19,0,0,0-2.5-1.08,12.06,12.06,0,0,1-2.88-1.22,3.82,3.82,0,0,1-2.05-3.35,3.64,3.64,0,0,1,1.48-3,6,6,0,0,1,3.83-1.17,6.48,6.48,0,0,1,2.78.57,4.61,4.61,0,0,1,1.92,1.64,4.19,4.19,0,0,1,.7,2.36h-2.59a2.33,2.33,0,0,0-.73-1.83,3,3,0,0,0-2.1-.66,3.19,3.19,0,0,0-2,.54,1.81,1.81,0,0,0-.71,1.52,1.64,1.64,0,0,0,.76,1.37,8.61,8.61,0,0,0,2.51,1.07,11.38,11.38,0,0,1,2.81,1.19,4.43,4.43,0,0,1,1.55,1.52,3.94,3.94,0,0,1,.49,2,3.56,3.56,0,0,1-1.43,3,6.2,6.2,0,0,1-3.89,1.11,7.36,7.36,0,0,1-3-.6,5.17,5.17,0,0,1-2.12-1.66,4.17,4.17,0,0,1-.75-2.47h2.6a2.41,2.41,0,0,0,.84,2,3.68,3.68,0,0,0,2.42.7,3.2,3.2,0,0,0,2-.55A1.79,1.79,0,0,0,287.81,146.46Z"/><path class="cls-2" d="M301.07,146.83h-5.8l-1.21,3.48h-2.7l5.65-15h2.34l5.66,15H302.3Zm-5.07-2.1h4.34l-2.17-6.21Z"/><path class="cls-2" d="M314.53,146.46a1.78,1.78,0,0,0-.7-1.52,8.07,8.07,0,0,0-2.5-1.08,12.24,12.24,0,0,1-2.88-1.22,3.83,3.83,0,0,1-2-3.35,3.66,3.66,0,0,1,1.47-3,6,6,0,0,1,3.83-1.17,6.56,6.56,0,0,1,2.79.57,4.74,4.74,0,0,1,1.92,1.64,4.27,4.27,0,0,1,.7,2.36h-2.59a2.34,2.34,0,0,0-.74-1.83,3,3,0,0,0-2.1-.66,3.19,3.19,0,0,0-2,.54,1.8,1.8,0,0,0-.7,1.52,1.62,1.62,0,0,0,.76,1.37,8.49,8.49,0,0,0,2.51,1.07,11.3,11.3,0,0,1,2.8,1.19,4.27,4.27,0,0,1,1.55,1.52,3.94,3.94,0,0,1,.5,2,3.55,3.55,0,0,1-1.44,3,6.18,6.18,0,0,1-3.89,1.11,7.31,7.31,0,0,1-3-.6,5.11,5.11,0,0,1-2.12-1.66,4.18,4.18,0,0,1-.76-2.47h2.61a2.41,2.41,0,0,0,.84,2,3.66,3.66,0,0,0,2.41.7,3.16,3.16,0,0,0,2-.55A1.77,1.77,0,0,0,314.53,146.46Z"/></g></g></svg>
